<?xml version="1.0" encoding="UTF-8" standalone="no"?>
<svg width="90px" height="72px" viewBox="0 0 90 72" version="1.1" xmlns="http://www.w3.org/2000/svg" xmlns:xlink="http://www.w3.org/1999/xlink" xmlns:sketch="http://www.bohemiancoding.com/sketch/ns">
    <!-- Generator: Sketch 3.2.2 (9983) - http://www.bohemiancoding.com/sketch -->
    <title>bear-sitting</title>
    <desc>Created with Sketch.</desc>
    <defs></defs>
    <g id="Page-1" stroke="none" stroke-width="1" fill="none" fill-rule="evenodd" sketch:type="MSPage">
        <g id="noun_66271_cc" sketch:type="MSLayerGroup" transform="translate(-5.000000, -14.000000)">
            <g id="Group"></g>
            <path d="M79.063,28.195 L60.064,18.45 L44.091,17.683 L31.614,14.134 L14.73,21.368 L13.275,24.46 L7.037,29.892 L4.994,32.367 L5.478,33.388 L7.872,35.809 L11.287,36.723 L12.846,36.562 L16.235,35.056 L13.411,37.012 L19.071,37.679 L30.526,36.831 L33.373,32.432 L33.168,37.042 L37.475,38.91 L39.413,38.014 L38.283,40.22 L40.551,54.94 L48.776,78.16 L39.71,78.493 L38.315,85.335 L55.295,85.276 L58.488,75.847 L58.133,58.998 L53.98,32.483 L59.844,59 L64.694,45.963 L79.237,53.764 L65.27,47.677 L60.66,61.45 L60.542,76.732 L73.095,80.468 L59.833,79.125 L57.423,85.332 L89.569,85.864 L95.007,58.553 L79.063,28.195 L79.063,28.195 Z M17.174,25.59 L15.589,25.24 L15.186,23.761 L16.368,23.653 L18.008,24.567 L17.174,25.59 L17.174,25.59 Z M32.314,20.588 L33.147,19.593 L34.116,21.906 L33.215,24.488 L32.421,25.052 L32.314,22.497 L30.566,19.754 L30.834,18.194 L32.072,17.683 L35.11,18.463 L32.367,18.409 L31.695,19.324 L32.314,20.588 L32.314,20.588 Z" id="Shape" fill="#000000" sketch:type="MSShapeGroup"></path>
        </g>
    </g>
</svg>