<?xml version="1.0" encoding="UTF-8" standalone="no"?>
<svg width="100px" height="72px" viewBox="0 0 100 72" version="1.1" xmlns="http://www.w3.org/2000/svg" xmlns:xlink="http://www.w3.org/1999/xlink" xmlns:sketch="http://www.bohemiancoding.com/sketch/ns">
    <!-- Generator: Sketch 3.2.2 (9983) - http://www.bohemiancoding.com/sketch -->
    <title>Slice 1</title>
    <desc>Created with Sketch.</desc>
    <defs></defs>
    <g id="Page-1" stroke="none" stroke-width="1" fill="none" fill-rule="evenodd" sketch:type="MSPage">
        <path d="M100,24.4912652 L99.7055621,22.9610023 L98.0878203,21.6834304 L93.1323748,18.3391565 L92.8746028,17.6079054 L88.5902535,14.7958355 L85.355881,14.7930122 L85.3636586,14.7958355 L81.60152,14.7930122 L80.329326,13.0269984 L78.4593676,11.6266102 L76.6205195,12.3973884 L76.6127419,13.8118934 L68.3029266,12.6317275 L60.0119997,6.96241398 L57.1187307,6.62361038 L44.2256839,5.83024528 L27.5127219,0 L15.0218884,5.09193577 L6.89206907,14.026469 C6.76096087,14.2650432 3.56880958,22.9595906 3.56880958,22.9595906 L4.39656897,40.4333863 L0,50.8134816 L0,55.0442915 L0,59.0139404 L6.72429502,68.4496206 L15.0218884,68.2632786 L14.8907802,67.6915476 L16.1540855,67.6915476 L15.4218795,65.476619 L10.7242061,64.7905417 L10.7297616,64.6437268 L10.9642008,57.9918828 L13.783027,53.3912123 L19.8684474,49.2945121 L21.1717517,47.1699312 L22.7961601,50.8163049 L28.3038155,66.0864655 L28.271594,67.8609494 L28.271594,70.2255161 L29.1504633,71.4480325 L47.1133975,71.4480325 L47.3056154,70.8099524 L48.6233639,70.8099524 L48.4989222,68.5682019 L47.0089554,67.8510676 L44.8712251,67.6929592 L38.493589,60.647256 L38.0702651,47.2602788 L39.0435768,47.7529557 L44.690118,44.4326804 L44.9556677,43.7395447 L46.4211906,60.6486677 L50.5444323,69.2500441 L50.5777649,69.6368449 L56.6098531,72 L59.5775649,72 L59.8875581,70.7393683 L59.8875581,71.4494442 L60.631986,71.4494442 L61.0041999,69.6368449 L60.5697651,67.4289748 L56.6098531,66.8981825 L55.5232106,64.8258338 L55.5232106,55.0485266 L58.0464879,47.2433386 L58.8086931,45.6439033 L69.3473478,35.4303864 L68.745139,34.0991706 L69.9862225,34.917946 L76.9760672,35.6562555 L89.3646808,30.0829363 L94.8101153,29.7554262 L97.2333948,28.2336333 L92.1690629,26.3716252 L92.0479545,25.8422446 L97.5722762,27.5913182 L98.0889314,27.5913182 L99.4522344,25.0474678 L98.7078065,23.9760014 L99.6055643,24.7114876 L100,24.4912652 L100,24.4912652 Z M79.1882403,16.8286571 L78.0604875,15.3209811 L77.834937,13.4970884 L79.2704607,13.3573319 L80.1348859,15.7967178 L79.1882403,16.8286571 L79.1882403,16.8286571 Z M89.5913424,18.7414858 L89.624675,17.8789483 L91.0101998,17.4822657 L91.8757361,18.4817364 L89.5913424,18.7414858 L89.5913424,18.7414858 Z" id="Shape" fill="#000000" sketch:type="MSShapeGroup"></path>
    </g>
</svg>