<svg xmlns="http://www.w3.org/2000/svg" xmlns:xlink="http://www.w3.org/1999/xlink" version="1.1" id="Your_Icon" x="0px" y="0px" width="100px" height="100px" viewBox="5.0 -10.0 100.0 135.0" enable-background="new 0 0 100 100" xml:space="preserve">
<g>
	<g>
		<g>
		</g>
	</g>
	<g>
	</g>
</g>
<path d="M95.001,41.849l-0.265-1.084l-1.456-0.905l-4.46-2.369l-0.232-0.518l-3.856-1.992l-2.911-0.002l0.007,0.002l-3.386-0.002  l-1.145-1.251l-1.683-0.992l-1.655,0.546l-0.007,1.002l-7.479-0.836l-7.462-4.016l-2.604-0.24L44.803,28.63L29.761,24.5  l-11.242,3.607l-7.317,6.329c-0.118,0.169-2.991,6.328-2.991,6.328l0.745,12.378l-3.957,7.353v2.997v2.812l6.052,6.684l7.468-0.132  l-0.118-0.405h1.137l-0.659-1.569l-4.228-0.486l0.005-0.104l0.211-4.712l2.537-3.259l5.477-2.902l1.173-1.505l1.462,2.583  l4.957,10.817l-0.029,1.257v1.675l0.791,0.866h16.167l0.173-0.452h1.186l-0.112-1.588l-1.341-0.508l-1.924-0.112l-5.74-4.991  l-0.381-9.483l0.876,0.349l5.082-2.352l0.239-0.491l1.319,11.978l3.711,6.093l0.03,0.274l5.429,1.674h2.671l0.279-0.893v0.503h0.67  l0.335-1.284l-0.391-1.564l-3.564-0.376l-0.978-1.468v-6.926l2.271-5.529l0.686-1.133l9.485-7.235l-0.542-0.943l1.117,0.58  l6.291,0.523l11.15-3.948l4.901-0.232l2.181-1.078l-4.558-1.319l-0.109-0.375l4.972,1.239h0.465l1.227-1.802l-0.67-0.759  l0.808,0.521L95.001,41.849z M76.27,36.421l-1.015-1.068l-0.203-1.292l1.292-0.099l0.778,1.728L76.27,36.421z M85.633,37.776  l0.03-0.611l1.247-0.281l0.779,0.708L85.633,37.776z"/>
<text x="0.0" y="117.5" font-size="5.0" font-weight="bold" font-family="Helvetica Neue, Helvetica, Arial-Unicode, Arial, Sans-serif" fill="#000000">Created by m. turan ercan</text><text x="0.0" y="122.5" font-size="5.0" font-weight="bold" font-family="Helvetica Neue, Helvetica, Arial-Unicode, Arial, Sans-serif" fill="#000000">from the Noun Project</text></svg>