<?xml version="1.0" encoding="utf-8"?>
<!-- Generator: Adobe Illustrator 13.0.2, SVG Export Plug-In . SVG Version: 6.00 Build 14948)  -->
<!DOCTYPE svg PUBLIC "-//W3C//DTD SVG 1.1//EN" "http://www.w3.org/Graphics/SVG/1.1/DTD/svg11.dtd">
<svg version="1.1" id="Layer_1" xmlns:sketch="http://www.bohemiancoding.com/sketch/ns"
	 xmlns="http://www.w3.org/2000/svg" xmlns:xlink="http://www.w3.org/1999/xlink" x="0px" y="0px" width="89.1px" height="85px"
	 viewBox="0 0 89.1 85" enable-background="new 0 0 89.1 85" xml:space="preserve">
<title>Untitled 8</title>
<description>Created with Sketch (http://www.bohemiancoding.com/sketch)</description>
<g id="Page-1" sketch:type="MSPage">
	<g id="XMLID_1_">
		<g>
			<path d="M85.14,29.91c2,0.32,3,1.14,3,2.47c0,0.78-0.46,1.64-1.39,2.57L67.3,53.91l4.61,26.79c0.04,0.25,0.05,0.6,0.05,1.069
				c0,0.75-0.18,1.381-0.561,1.9c-0.369,0.521-0.92,0.78-1.63,0.78c-0.68,0-1.39-0.22-2.14-0.65L43.57,71.16L19.52,83.8
				c-0.79,0.431-1.5,0.65-2.14,0.65c-0.75,0-1.32-0.26-1.69-0.78c-0.38-0.52-0.56-1.15-0.56-1.9c0-0.22,0.03-0.569,0.1-1.069
				l4.61-26.79L0.34,34.95C-0.55,33.98-1,33.12-1,32.38c0-1.33,1-2.15,3-2.47L28.89,26L40.95,1.62c0.68-1.46,1.55-2.19,2.62-2.19
				s1.95,0.73,2.63,2.19L58.25,26L85.14,29.91z"/>
		</g>
		<g>
		</g>
	</g>
</g>
</svg>
